<svg width="1600" height="1000" viewBox="0 0 1600 1000" fill="none" xmlns="http://www.w3.org/2000/svg">
  <rect width="1600" height="1000" rx="64" fill="#FBF4EC"/>
  <rect x="84" y="80" width="1432" height="840" rx="42" fill="#FFFDF8"/>
  <rect x="134" y="132" width="460" height="320" rx="30" fill="#E6D0B8"/>
  <rect x="164" y="164" width="188" height="20" rx="10" fill="#5D4D42"/>
  <rect x="164" y="206" width="220" height="66" rx="22" fill="#FFF8EF"/>
  <rect x="164" y="296" width="390" height="20" rx="10" fill="#FFF8EF" fill-opacity="0.75"/>
  <rect x="164" y="334" width="328" height="20" rx="10" fill="#FFF8EF" fill-opacity="0.52"/>
  <rect x="630" y="132" width="836" height="320" rx="30" fill="#3A3029"/>
  <rect x="668" y="172" width="184" height="18" rx="9" fill="#F3D8B8"/>
  <rect x="668" y="218" width="430" height="64" rx="24" fill="#FFF9F2"/>
  <rect x="1120" y="218" width="308" height="190" rx="24" fill="#D0E2D8"/>
  <rect x="668" y="308" width="410" height="18" rx="9" fill="#F3D8B8" fill-opacity="0.7"/>
  <rect x="668" y="344" width="368" height="18" rx="9" fill="#F3D8B8" fill-opacity="0.5"/>
  <rect x="134" y="500" width="580" height="370" rx="30" fill="#FFF4E8"/>
  <rect x="170" y="540" width="160" height="18" rx="9" fill="#A8876B"/>
  <rect x="170" y="586" width="506" height="86" rx="28" fill="#EAD6C0"/>
  <rect x="170" y="700" width="506" height="126" rx="28" fill="#C7DCCD"/>
  <rect x="750" y="500" width="716" height="370" rx="30" fill="#FFF9F2"/>
  <rect x="790" y="540" width="150" height="18" rx="9" fill="#A8876B"/>
  <rect x="790" y="586" width="636" height="66" rx="24" fill="#EFE1D3"/>
  <rect x="790" y="684" width="636" height="142" rx="28" fill="#F7EEE2"/>
  <rect x="822" y="718" width="250" height="18" rx="9" fill="#B9A28C"/>
  <rect x="822" y="754" width="544" height="18" rx="9" fill="#D6C1AE"/>
  <text x="138" y="938" fill="#6F5D50" font-family="Arial, sans-serif" font-size="24">Service framing, proof blocks, and promotion structure remain light but clear.</text>
</svg>
