<svg width="1600" height="1000" viewBox="0 0 1600 1000" fill="none" xmlns="http://www.w3.org/2000/svg">
  <rect width="1600" height="1000" rx="64" fill="#F4EEE7"/>
  <rect x="84" y="84" width="780" height="832" rx="40" fill="#FFF9F2"/>
  <rect x="118" y="120" width="712" height="88" rx="28" fill="#3D2E28"/>
  <rect x="156" y="154" width="210" height="20" rx="10" fill="#FFF2E3"/>
  <rect x="596" y="150" width="190" height="28" rx="14" fill="#275BFF"/>
  <rect x="118" y="240" width="712" height="232" rx="30" fill="#E8D9CC"/>
  <rect x="154" y="278" width="240" height="18" rx="9" fill="#6A584C"/>
  <rect x="154" y="324" width="286" height="72" rx="24" fill="#FFF9F2"/>
  <rect x="470" y="324" width="320" height="112" rx="26" fill="#C6D9D0"/>
  <rect x="118" y="504" width="712" height="378" rx="30" fill="#FFF4E8"/>
  <rect x="154" y="542" width="156" height="18" rx="9" fill="#A8876B"/>
  <rect x="154" y="588" width="640" height="76" rx="28" fill="#EFDCC9"/>
  <rect x="154" y="690" width="640" height="148" rx="28" fill="#F8F1E8"/>
  <rect x="924" y="84" width="592" height="832" rx="40" fill="#2C241F"/>
  <rect x="962" y="126" width="190" height="18" rx="9" fill="#E8D2BA"/>
  <rect x="962" y="170" width="516" height="124" rx="24" fill="#F7EFE3"/>
  <rect x="998" y="208" width="164" height="18" rx="9" fill="#A68C77"/>
  <rect x="998" y="242" width="250" height="18" rx="9" fill="#D7C1AA"/>
  <rect x="962" y="336" width="516" height="236" rx="30" fill="#F0E0CF"/>
  <rect x="998" y="376" width="194" height="18" rx="9" fill="#7B6656"/>
  <rect x="998" y="420" width="442" height="114" rx="24" fill="#FFFFFF"/>
  <rect x="962" y="614" width="516" height="262" rx="30" fill="#D8E5DE"/>
  <rect x="998" y="654" width="228" height="18" rx="9" fill="#4D4A43"/>
  <rect x="998" y="698" width="442" height="18" rx="9" fill="#617B70"/>
  <rect x="998" y="734" width="392" height="18" rx="9" fill="#7D9A8E"/>
  <text x="930" y="946" fill="#F9F1E7" font-family="Arial, sans-serif" font-size="24">Admin-oriented states remain calm while keeping update paths obvious.</text>
</svg>
