<svg width="720" height="1280" viewBox="0 0 720 1280" fill="none" xmlns="http://www.w3.org/2000/svg">
  <rect width="720" height="1280" rx="64" fill="#F6EBDD"/>
  <rect x="164" y="42" width="392" height="1196" rx="48" fill="#1C1714"/>
  <rect x="188" y="88" width="344" height="1104" rx="38" fill="#FFF9F2"/>
  <rect x="220" y="132" width="160" height="14" rx="7" fill="#B9997B"/>
  <rect x="220" y="172" width="220" height="72" rx="24" fill="#43362F"/>
  <rect x="220" y="272" width="240" height="16" rx="8" fill="#D5C1AE"/>
  <rect x="220" y="302" width="204" height="16" rx="8" fill="#DCCABC"/>
  <rect x="220" y="348" width="142" height="42" rx="21" fill="#275BFF"/>
  <rect x="220" y="430" width="280" height="182" rx="28" fill="#E8D9CC"/>
  <rect x="244" y="458" width="120" height="12" rx="6" fill="#6A584C"/>
  <rect x="244" y="488" width="220" height="50" rx="18" fill="#FFF9F2"/>
  <rect x="220" y="650" width="280" height="172" rx="28" fill="#C8DCD0"/>
  <rect x="220" y="860" width="280" height="214" rx="28" fill="#F3E4D5"/>
  <rect x="244" y="892" width="132" height="12" rx="6" fill="#7B6656"/>
  <rect x="244" y="924" width="212" height="12" rx="6" fill="#A98E78"/>
  <rect x="244" y="956" width="188" height="12" rx="6" fill="#C2AB96"/>
</svg>
