<svg width="720" height="1280" viewBox="0 0 720 1280" fill="none" xmlns="http://www.w3.org/2000/svg">
  <rect width="720" height="1280" rx="64" fill="#0D1324"/>
  <rect x="164" y="42" width="392" height="1196" rx="48" fill="#1A274A"/>
  <rect x="188" y="88" width="344" height="1104" rx="38" fill="#F5F7FF"/>
  <rect x="220" y="132" width="164" height="14" rx="7" fill="#7F94CF"/>
  <rect x="220" y="170" width="244" height="76" rx="24" fill="#DCE4FC"/>
  <rect x="220" y="278" width="240" height="16" rx="8" fill="#7F94CF"/>
  <rect x="220" y="308" width="214" height="16" rx="8" fill="#A2B3E3"/>
  <rect x="220" y="354" width="144" height="42" rx="21" fill="#2D66FF"/>
  <rect x="220" y="438" width="280" height="182" rx="28" fill="#121A31"/>
  <rect x="244" y="466" width="172" height="12" rx="6" fill="#AFC1F0"/>
  <rect x="244" y="498" width="212" height="82" rx="22" fill="#23355F"/>
  <rect x="220" y="658" width="280" height="188" rx="28" fill="#E2E9FF"/>
  <rect x="244" y="692" width="128" height="12" rx="6" fill="#6B7FB8"/>
  <rect x="244" y="724" width="208" height="58" rx="18" fill="#FFFFFF"/>
  <rect x="220" y="882" width="280" height="190" rx="28" fill="#FFB087"/>
  <rect x="244" y="916" width="126" height="12" rx="6" fill="#5E463C"/>
  <rect x="244" y="948" width="194" height="12" rx="6" fill="#866456"/>
</svg>
