<svg width="720" height="1280" viewBox="0 0 720 1280" fill="none" xmlns="http://www.w3.org/2000/svg">
  <rect width="720" height="1280" fill="#08111F"/>
  <rect x="104" y="42" width="512" height="1196" rx="46" fill="#0D1B2E"/>
  <rect x="136" y="102" width="448" height="94" rx="24" fill="#11243C"/>
  <rect x="136" y="224" width="448" height="154" rx="24" fill="#11243C"/>
  <rect x="136" y="404" width="448" height="154" rx="24" fill="#11243C"/>
  <rect x="136" y="584" width="448" height="276" rx="24" fill="#101E33"/>
  <rect x="136" y="886" width="448" height="292" rx="24" fill="#101E33"/>
  <rect x="166" y="132" width="180" height="14" rx="7" fill="#E8F0FA"/>
  <rect x="166" y="158" width="252" height="10" rx="5" fill="#7691B6"/>
  <rect x="166" y="260" width="132" height="14" rx="7" fill="#7AB7FF"/>
  <rect x="166" y="294" width="210" height="10" rx="5" fill="#7691B6"/>
  <rect x="166" y="440" width="132" height="14" rx="7" fill="#F3B03B"/>
  <rect x="166" y="474" width="242" height="10" rx="5" fill="#7691B6"/>
  <path d="M174 818C223 770 266 760 309 710C352 659 392 657 433 612C473 568 518 536 546 512" stroke="#5CA6FF" stroke-width="6" stroke-linecap="round"/>
  <rect x="166" y="938" width="158" height="14" rx="7" fill="#E8F0FA"/>
  <rect x="166" y="970" width="236" height="10" rx="5" fill="#7691B6"/>
  <rect x="166" y="1018" width="388" height="18" rx="9" fill="#1F3553"/>
  <rect x="166" y="1056" width="352" height="18" rx="9" fill="#1F3553"/>
  <rect x="166" y="1094" width="396" height="18" rx="9" fill="#1F3553"/>
</svg>
