<svg width="1600" height="1000" viewBox="0 0 1600 1000" fill="none" xmlns="http://www.w3.org/2000/svg">
  <rect width="1600" height="1000" rx="64" fill="#F2F6FD"/>
  <circle cx="1330" cy="170" r="180" fill="#3B82F6" fill-opacity="0.18"/>
  <circle cx="260" cy="840" r="200" fill="#F59E0B" fill-opacity="0.16"/>
  <rect x="82" y="74" width="1436" height="852" rx="44" fill="#0F172A"/>
  <rect x="112" y="104" width="248" height="792" rx="32" fill="#111E38"/>
  <rect x="144" y="140" width="126" height="20" rx="10" fill="#D6E6FF"/>
  <rect x="144" y="196" width="184" height="54" rx="18" fill="#1E40AF"/>
  <rect x="144" y="274" width="184" height="54" rx="18" fill="#152443"/>
  <rect x="144" y="352" width="184" height="54" rx="18" fill="#152443"/>
  <rect x="144" y="430" width="184" height="54" rx="18" fill="#152443"/>
  <rect x="392" y="104" width="1096" height="90" rx="30" fill="#101B33"/>
  <rect x="432" y="138" width="220" height="20" rx="10" fill="#D6E6FF"/>
  <rect x="1234" y="132" width="214" height="32" rx="16" fill="#172A51"/>
  <rect x="392" y="224" width="260" height="182" rx="28" fill="#11203D"/>
  <rect x="682" y="224" width="260" height="182" rx="28" fill="#11203D"/>
  <rect x="972" y="224" width="260" height="182" rx="28" fill="#11203D"/>
  <rect x="1262" y="224" width="226" height="182" rx="28" fill="#1E40AF"/>
  <rect x="426" y="260" width="118" height="18" rx="9" fill="#8EB8FF"/>
  <rect x="426" y="306" width="154" height="70" rx="24" fill="#DCE9FF"/>
  <rect x="716" y="260" width="118" height="18" rx="9" fill="#8EB8FF"/>
  <rect x="716" y="306" width="154" height="70" rx="24" fill="#DCE9FF"/>
  <rect x="1006" y="260" width="118" height="18" rx="9" fill="#8EB8FF"/>
  <rect x="1006" y="306" width="154" height="70" rx="24" fill="#DCE9FF"/>
  <rect x="392" y="436" width="718" height="460" rx="32" fill="#111E38"/>
  <rect x="1140" y="436" width="348" height="460" rx="32" fill="#101B33"/>
  <rect x="430" y="472" width="160" height="18" rx="9" fill="#C9DEFF"/>
  <rect x="430" y="516" width="642" height="76" rx="26" fill="#162B4F"/>
  <rect x="430" y="626" width="642" height="222" rx="30" fill="#0B1323"/>
  <rect x="1176" y="472" width="134" height="18" rx="9" fill="#C9DEFF"/>
  <rect x="1176" y="516" width="272" height="124" rx="26" fill="#172A51"/>
  <rect x="1176" y="674" width="272" height="174" rx="26" fill="#0B1323"/>
  <text x="428" y="952" fill="#EAF2FF" font-family="Georgia, serif" font-size="54">Signal Desk</text>
  <text x="428" y="990" fill="#8FB5F0" font-family="Arial, sans-serif" font-size="24">Measured premium for overview, analytics, and team operations.</text>
</svg>
