<svg width="1600" height="1000" viewBox="0 0 1600 1000" fill="none" xmlns="http://www.w3.org/2000/svg">
  <rect width="1600" height="1000" rx="64" fill="#F2F6FD"/>
  <rect x="84" y="84" width="1432" height="832" rx="42" fill="#0F172A"/>
  <rect x="118" y="118" width="1364" height="118" rx="32" fill="#101B33"/>
  <rect x="156" y="156" width="208" height="20" rx="10" fill="#D6E6FF"/>
  <rect x="118" y="268" width="872" height="612" rx="32" fill="#111E38"/>
  <rect x="1022" y="268" width="460" height="612" rx="32" fill="#101B33"/>
  <rect x="156" y="308" width="160" height="18" rx="9" fill="#C7DDFF"/>
  <rect x="156" y="352" width="794" height="170" rx="30" fill="#162B4F"/>
  <path d="M190 470C274 420 344 534 418 496C492 458 562 320 640 346C718 372 780 520 862 472C906 446 928 404 950 386V522H190V470Z" fill="#3B82F6"/>
  <path d="M190 518C260 484 314 620 398 584C482 548 556 418 636 452C716 486 782 652 860 606C906 578 930 550 950 534V690H190V518Z" fill="#F59E0B" fill-opacity="0.78"/>
  <rect x="156" y="560" width="794" height="282" rx="30" fill="#0C1324"/>
  <rect x="190" y="594" width="176" height="18" rx="9" fill="#A7C7FF"/>
  <rect x="190" y="640" width="726" height="54" rx="18" fill="#172A51"/>
  <rect x="190" y="716" width="726" height="90" rx="24" fill="#14203B"/>
  <rect x="1060" y="308" width="152" height="18" rx="9" fill="#D6E6FF"/>
  <rect x="1060" y="352" width="384" height="94" rx="28" fill="#162B4F"/>
  <rect x="1060" y="486" width="384" height="148" rx="28" fill="#0B1323"/>
  <rect x="1060" y="674" width="384" height="168" rx="28" fill="#1E40AF"/>
  <text x="1060" y="948" fill="#EAF2FF" font-family="Arial, sans-serif" font-size="24">Analytics is treated as a reading surface, not just a chart dump.</text>
</svg>
