<svg width="720" height="1280" viewBox="0 0 720 1280" fill="none" xmlns="http://www.w3.org/2000/svg">
  <rect width="720" height="1280" rx="64" fill="#EEF4FD"/>
  <rect x="164" y="42" width="392" height="1196" rx="48" fill="#0F172A"/>
  <rect x="188" y="88" width="344" height="1104" rx="38" fill="#111E38"/>
  <rect x="220" y="132" width="140" height="14" rx="7" fill="#BFD7FF"/>
  <rect x="220" y="170" width="244" height="60" rx="20" fill="#101B33"/>
  <rect x="220" y="266" width="280" height="126" rx="26" fill="#162B4F"/>
  <rect x="220" y="424" width="280" height="156" rx="28" fill="#0B1323"/>
  <rect x="244" y="456" width="112" height="12" rx="6" fill="#B7D0FF"/>
  <rect x="244" y="490" width="224" height="58" rx="18" fill="#1E40AF"/>
  <rect x="220" y="616" width="280" height="158" rx="28" fill="#101B33"/>
  <rect x="244" y="648" width="124" height="12" rx="6" fill="#BFD7FF"/>
  <rect x="244" y="682" width="222" height="88" rx="22" fill="#172A51"/>
  <rect x="220" y="812" width="280" height="222" rx="28" fill="#F3F7FF"/>
  <rect x="244" y="846" width="120" height="12" rx="6" fill="#6E87BA"/>
  <rect x="244" y="878" width="212" height="48" rx="18" fill="#DCE9FF"/>
  <rect x="244" y="950" width="196" height="52" rx="18" fill="#F59E0B"/>
</svg>
